<svg xmlns="http://www.w3.org/2000/svg" viewBox="0 0 512 512">
  <path d="M384 0H128c-17.7 0-32 14.3-32 32v448c0 17.7 14.3 32 32 32h256c17.7 0 32-14.3 32-32V32c0-17.7-14.3-32-32-32z" fill="#ECEFF1"/>
  <path d="M384 0H128c-17.7 0-32 14.3-32 32v64h320V32c0-17.7-14.3-32-32-32z" fill="#263238"/>
  <path d="M256 48c-8.8 0-16-7.2-16-16s7.2-16 16-16 16 7.2 16 16-7.2 16-16 16z" fill="#37474F"/>
  <path d="M256 464c-17.7 0-32-14.3-32-32s14.3-32 32-32 32 14.3 32 32-14.3 32-32 32z" fill="#4CAF50"/>
  <path d="M256 432c-8.8 0-16-7.2-16-16s7.2-16 16-16 16 7.2 16 16-7.2 16-16 16z" fill="#FFFFFF"/>
  <path d="M320 368H192c-8.8 0-16-7.2-16-16s7.2-16 16-16h128c8.8 0 16 7.2 16 16s-7.2 16-16 16z" fill="#4CAF50"/>
  <path d="M320 320H192c-8.8 0-16-7.2-16-16s7.2-16 16-16h128c8.8 0 16 7.2 16 16s-7.2 16-16 16z" fill="#4CAF50"/>
  <path d="M256 240c-44.1 0-80-35.9-80-80s35.9-80 80-80 80 35.9 80 80-35.9 80-80 80z" fill="#4CAF50"/>
  <path d="M224 160l32 32 48-48" fill="none" stroke="#FFFFFF" stroke-width="16" stroke-linecap="round" stroke-linejoin="round"/>
  <path d="M96 128c-17.7 0-32 14.3-32 32v32c0 17.7 14.3 32 32 32h32c17.7 0 32-14.3 32-32v-32c0-17.7-14.3-32-32-32H96z" fill="#FFFFFF"/>
  <path d="M96 224c-17.7 0-32 14.3-32 32v32c0 17.7 14.3 32 32 32h32c17.7 0 32-14.3 32-32v-32c0-17.7-14.3-32-32-32H96z" fill="#FFFFFF"/>
</svg>
