<svg xmlns="http://www.w3.org/2000/svg" viewBox="0 0 512 512">
  <path d="M448 128H64c-35.3 0-64 28.7-64 64v128c0 35.3 28.7 64 64 64h384c35.3 0 64-28.7 64-64V192c0-35.3-28.7-64-64-64z" fill="#8BC34A"/>
  <path d="M448 128H64c-35.3 0-64 28.7-64 64v16h512v-16c0-35.3-28.7-64-64-64z" fill="#689F38"/>
  <path d="M0 304v16c0 35.3 28.7 64 64 64h384c35.3 0 64-28.7 64-64v-16H0z" fill="#558B2F"/>
  <path d="M64 192c-8.8 0-16 7.2-16 16s7.2 16 16 16 16-7.2 16-16-7.2-16-16-16z" fill="#212121"/>
  <path d="M448 192c-8.8 0-16 7.2-16 16s7.2 16 16 16 16-7.2 16-16-7.2-16-16-16z" fill="#212121"/>
  <path d="M256 192c-17.7 0-32 14.3-32 32s14.3 32 32 32 32-14.3 32-32-14.3-32-32-32z" fill="#009688"/>
  <path d="M160 160c-17.7 0-32 14.3-32 32v32h64v-32c0-17.7-14.3-32-32-32z" fill="#FF9800"/>
  <path d="M160 160c-8.8 0-16-7.2-16-16s7.2-16 16-16 16 7.2 16 16-7.2 16-16 16z" fill="#FFCC80"/>
  <path d="M160 224c-8.8 0-16-7.2-16-16s7.2-16 16-16 16 7.2 16 16-7.2 16-16 16z" fill="#FFCC80"/>
  <path d="M96 352c-17.7 0-32 14.3-32 32v64c0 17.7 14.3 32 32 32h320c17.7 0 32-14.3 32-32v-64c0-17.7-14.3-32-32-32H96z" fill="#FFCC80"/>
  <path d="M96 352c-17.7 0-32 14.3-32 32v16h384v-16c0-17.7-14.3-32-32-32H96z" fill="#0288D1"/>
  <path d="M64 448v-64h384v64H64z" fill="#FFCC80"/>
</svg>
