<svg xmlns="http://www.w3.org/2000/svg" viewBox="0 0 512 512">
  <path d="M256 128c35.3 0 64-28.7 64-64S291.3 0 256 0s-64 28.7-64 64 28.7 64 64 64z" fill="#8E725C"/>
  <path d="M256 128c-53 0-96 43-96 96v64h192v-64c0-53-43-96-96-96z" fill="#E57373"/>
  <path d="M256 128c-17.7 0-32-14.3-32-32s14.3-32 32-32 32 14.3 32 32-14.3 32-32 32z" fill="#FFCC80"/>
  <path d="M256 128c-26.5 0-48 21.5-48 48v32h96v-32c0-26.5-21.5-48-48-48z" fill="#FFCC80"/>
  <path d="M128 160c26.5 0 48-21.5 48-48s-21.5-48-48-48-48 21.5-48 48 21.5 48 48 48z" fill="#8E725C"/>
  <path d="M128 160c-39.8 0-72 32.2-72 72v48h144v-48c0-39.8-32.2-72-72-72z" fill="#CFD8DC"/>
  <path d="M128 160c-13.3 0-24-10.7-24-24s10.7-24 24-24 24 10.7 24 24-10.7 24-24 24z" fill="#FFCC80"/>
  <path d="M128 160c-19.9 0-36 16.1-36 36v24h72v-24c0-19.9-16.1-36-36-36z" fill="#FFCC80"/>
  <path d="M384 160c26.5 0 48-21.5 48-48s-21.5-48-48-48-48 21.5-48 48 21.5 48 48 48z" fill="#8E725C"/>
  <path d="M384 160c-39.8 0-72 32.2-72 72v48h144v-48c0-39.8-32.2-72-72-72z" fill="#CFD8DC"/>
  <path d="M384 160c-13.3 0-24-10.7-24-24s10.7-24 24-24 24 10.7 24 24-10.7 24-24 24z" fill="#FFCC80"/>
  <path d="M384 160c-19.9 0-36 16.1-36 36v24h72v-24c0-19.9-16.1-36-36-36z" fill="#FFCC80"/>
  <path d="M256 288c-8.8 0-16-7.2-16-16s7.2-16 16-16 16 7.2 16 16-7.2 16-16 16z" fill="#607D8B"/>
  <path d="M240 288h32v32h-32z" fill="#607D8B"/>
</svg>
